# xmcd
#
# Track frame offsets: 
#        150
#        12009
#        23391
#        35362
#        46208
#        61411
#        74454
#        85456
#        98397
#        113421
#        127502
#        137463
#        146022
#        158454
#        169619
#        180307
#        192023
#        203657
#        214783
#        224505
#        234962
#        246555
#        255970
#
# Disc length: 3538 seconds
#
# Revision: 3
# Processed by: cddbd v1.5.2PL0 Copyright (c) Steve Scherf et al.
# Submitted via: ExactAudioCopy v1.1
#
DISCID=1c0dd017
DTITLE=Roy Hamilton - Spirituals - You Can Have Her
DYEAR=2014
DGENRE=R&B
TTITLE0=The Ten Commandments (stereo)
TTITLE1=Go Down, Moses (stereo)
TTITLE2=Nobody Knows The Trouble I've Seen (stereo)
TTITLE3=A Charge To Keep (stereo)
TTITLE4=Over My Head (stereo)
TTITLE5=My Prayer (stereo)
TTITLE6=Down By The Riverside (stereo)
TTITLE7=Christian Testimonials (stereo)
TTITLE8=Deep River (stereo)
TTITLE9=Swing Low, Sweet Chariot (stereo)
TTITLE10=Sometimes I Feel Like A Motherless Child (stereo)
TTITLE11=The Lord's Prayer (stereo)
TTITLE12=You Can Have Her (stereo)
TTITLE13=I'll Never Be Free (stereo)
TTITLE14=I Need Your Lovin' (stereo)
TTITLE15=Never Let Me Go (stereo)
TTITLE16=Abide With Me (stereo)
TTITLE17=Don't Let Go (stereo)
TTITLE18=On My Way Back Home (stereo)
TTITLE19=Jungle Fever (stereo)
TTITLE20=Dreams On Dreams (stereo)
TTITLE21=Crazy Feelin' (stereo)
TTITLE22=I'll Live True To You (stereo)
EXTD=
EXTT0=
EXTT1=
EXTT2=
EXTT3=
EXTT4=
EXTT5=
EXTT6=
EXTT7=
EXTT8=
EXTT9=
EXTT10=
EXTT11=
EXTT12=
EXTT13=
EXTT14=
EXTT15=
EXTT16=
EXTT17=
EXTT18=
EXTT19=
EXTT20=
EXTT21=
EXTT22=
PLAYORDER=
